<svg width="342.773" height="38.536" viewBox="0 0 342.773 38.536" xmlns="http://www.w3.org/2000/svg"><g id="svgGroup" stroke-linecap="round" fill-rule="evenodd" font-size="9pt" stroke="#000" stroke-width="0.25mm" fill="black" style="stroke:#000;stroke-width:0.25mm;fill:black"><path d="M 312.832 8.867 L 317.305 8.867 L 317.441 11.074 Q 319.668 8.477 323.535 8.477 A 8.58 8.58 0 0 1 325.708 8.733 A 5.355 5.355 0 0 1 329.336 11.719 A 7.337 7.337 0 0 1 334.667 8.542 A 9.83 9.83 0 0 1 335.82 8.477 A 10.019 10.019 0 0 1 337.808 8.661 Q 339.844 9.073 341.025 10.41 Q 342.369 11.931 342.681 14.587 A 14.415 14.415 0 0 1 342.773 16.113 L 342.773 30 L 338.027 30 L 338.027 16.25 A 7.333 7.333 0 0 0 337.958 15.203 Q 337.78 13.975 337.148 13.301 A 2.589 2.589 0 0 0 336.18 12.668 Q 335.764 12.506 335.242 12.43 A 6.993 6.993 0 0 0 334.238 12.363 A 4.942 4.942 0 0 0 333.063 12.496 A 3.538 3.538 0 0 0 331.592 13.232 A 4.492 4.492 0 0 0 330.269 15.162 A 5.549 5.549 0 0 0 330.156 15.508 L 330.176 30 L 325.43 30 L 325.43 16.094 Q 325.332 12.363 321.621 12.363 Q 318.77 12.363 317.578 14.688 L 317.578 30 L 312.832 30 L 312.832 8.867 Z M 136.66 4.688 L 121.934 26.055 L 137.129 26.055 L 137.129 30 L 115.957 30 L 115.957 26.797 L 130.664 5.547 L 116.055 5.547 L 116.055 1.563 L 136.66 1.563 L 136.66 4.688 Z M 188.164 0 L 188.164 11.172 Q 190.488 8.477 194.043 8.477 Q 200.559 8.477 200.883 15.648 A 16.705 16.705 0 0 1 200.898 16.191 L 200.898 30 L 196.152 30 L 196.152 16.367 A 7.97 7.97 0 0 0 196.086 15.295 Q 195.919 14.069 195.334 13.406 A 2.224 2.224 0 0 0 195.205 13.271 A 3.009 3.009 0 0 0 194.036 12.59 Q 193.34 12.363 192.422 12.363 Q 189.873 12.363 188.479 14.392 A 6.23 6.23 0 0 0 188.164 14.902 L 188.164 30 L 183.418 30 L 183.418 0 L 188.164 0 Z M 68.789 30 L 62.52 20.938 L 60.41 23.105 L 60.41 30 L 55.664 30 L 55.664 0 L 60.41 0 L 60.41 17.305 L 61.895 15.449 L 67.734 8.867 L 73.438 8.867 L 65.586 17.676 L 74.277 30 L 68.789 30 Z M 16.152 30 L 10.449 19.043 L 4.941 19.043 L 4.941 30 L 0 30 L 0 1.563 L 10 1.563 Q 13.406 1.563 15.736 2.619 A 8.285 8.285 0 0 1 17.598 3.77 A 7.145 7.145 0 0 1 20.073 8.018 A 10.847 10.847 0 0 1 20.273 10.156 A 9.77 9.77 0 0 1 20.037 12.359 A 7.125 7.125 0 0 1 18.896 14.932 A 8.343 8.343 0 0 1 16.221 17.318 A 10.54 10.54 0 0 1 15.059 17.891 L 21.445 29.746 L 21.445 30 L 16.152 30 Z M 100.273 8.867 L 104.746 23.203 L 109.043 8.867 L 114.102 8.867 L 105.703 33.203 A 11.245 11.245 0 0 1 104.527 35.598 Q 103.536 37.09 102.163 37.824 A 6.311 6.311 0 0 1 99.141 38.535 A 7.169 7.169 0 0 1 98.052 38.447 Q 97.48 38.359 96.855 38.184 L 96.855 34.512 L 97.754 34.57 A 7.888 7.888 0 0 0 98.742 34.513 Q 99.231 34.451 99.629 34.322 A 2.965 2.965 0 0 0 100.458 33.917 A 3.156 3.156 0 0 0 101.18 33.174 Q 101.598 32.587 101.895 31.719 L 102.578 29.902 L 95.156 8.867 L 100.273 8.867 Z M 244.668 8.867 L 249.141 23.203 L 253.438 8.867 L 258.496 8.867 L 250.098 33.203 A 11.245 11.245 0 0 1 248.921 35.598 Q 247.931 37.09 246.557 37.824 A 6.311 6.311 0 0 1 243.535 38.535 A 7.169 7.169 0 0 1 242.446 38.447 Q 241.875 38.359 241.25 38.184 L 241.25 34.512 L 242.148 34.57 A 7.888 7.888 0 0 0 243.137 34.513 Q 243.625 34.451 244.024 34.322 A 2.965 2.965 0 0 0 244.853 33.917 A 3.156 3.156 0 0 0 245.575 33.174 Q 245.992 32.587 246.289 31.719 L 246.973 29.902 L 239.551 8.867 L 244.668 8.867 Z M 47.598 23.008 L 52.07 23.008 A 6.971 6.971 0 0 1 50.84 26.689 Q 49.688 28.398 47.715 29.395 A 9.313 9.313 0 0 1 43.457 30.391 A 11.068 11.068 0 0 1 40.39 29.987 A 8.356 8.356 0 0 1 36.426 27.52 A 9.54 9.54 0 0 1 34.325 23.597 Q 33.828 21.803 33.828 19.59 L 33.828 19.102 Q 33.828 14.277 36.406 11.377 A 8.47 8.47 0 0 1 41.706 8.596 A 12.091 12.091 0 0 1 43.437 8.477 A 10.556 10.556 0 0 1 46.22 8.825 A 7.939 7.939 0 0 1 49.58 10.674 Q 51.953 12.871 52.07 16.445 L 47.598 16.445 A 4.905 4.905 0 0 0 47.304 14.932 A 4.12 4.12 0 0 0 46.357 13.457 Q 45.195 12.285 43.398 12.285 A 5.069 5.069 0 0 0 41.848 12.51 A 3.965 3.965 0 0 0 39.844 13.955 A 5.353 5.353 0 0 0 39.079 15.451 Q 38.602 16.854 38.575 18.891 A 18.34 18.34 0 0 0 38.574 19.023 L 38.574 19.785 A 15.313 15.313 0 0 0 38.672 21.58 Q 38.909 23.576 39.714 24.769 A 4.408 4.408 0 0 0 39.814 24.912 Q 41.055 26.602 43.398 26.602 A 5.014 5.014 0 0 0 44.814 26.41 A 3.978 3.978 0 0 0 46.348 25.566 A 3.69 3.69 0 0 0 47.293 24.308 A 3.6 3.6 0 0 0 47.598 23.008 Z M 175.43 23.008 L 179.902 23.008 A 6.971 6.971 0 0 1 178.672 26.689 Q 177.52 28.398 175.547 29.395 A 9.313 9.313 0 0 1 171.289 30.391 A 11.068 11.068 0 0 1 168.222 29.987 A 8.356 8.356 0 0 1 164.258 27.52 A 9.54 9.54 0 0 1 162.157 23.597 Q 161.66 21.803 161.66 19.59 L 161.66 19.102 Q 161.66 14.277 164.238 11.377 A 8.47 8.47 0 0 1 169.538 8.596 A 12.091 12.091 0 0 1 171.27 8.477 A 10.556 10.556 0 0 1 174.052 8.825 A 7.939 7.939 0 0 1 177.412 10.674 Q 179.785 12.871 179.902 16.445 L 175.43 16.445 A 4.905 4.905 0 0 0 175.136 14.932 A 4.12 4.12 0 0 0 174.189 13.457 Q 173.027 12.285 171.23 12.285 A 5.069 5.069 0 0 0 169.68 12.51 A 3.965 3.965 0 0 0 167.676 13.955 A 5.353 5.353 0 0 0 166.911 15.451 Q 166.434 16.854 166.407 18.891 A 18.34 18.34 0 0 0 166.406 19.023 L 166.406 19.785 A 15.313 15.313 0 0 0 166.504 21.58 Q 166.741 23.576 167.546 24.769 A 4.408 4.408 0 0 0 167.646 24.912 Q 168.887 26.602 171.23 26.602 A 5.014 5.014 0 0 0 172.646 26.41 A 3.978 3.978 0 0 0 174.18 25.566 A 3.69 3.69 0 0 0 175.125 24.308 A 3.6 3.6 0 0 0 175.43 23.008 Z M 282.012 23.008 L 286.484 23.008 A 6.971 6.971 0 0 1 285.254 26.689 Q 284.102 28.398 282.129 29.395 A 9.313 9.313 0 0 1 277.871 30.391 A 11.068 11.068 0 0 1 274.804 29.987 A 8.356 8.356 0 0 1 270.84 27.52 A 9.54 9.54 0 0 1 268.739 23.597 Q 268.242 21.803 268.242 19.59 L 268.242 19.102 Q 268.242 14.277 270.82 11.377 A 8.47 8.47 0 0 1 276.12 8.596 A 12.091 12.091 0 0 1 277.852 8.477 A 10.556 10.556 0 0 1 280.634 8.825 A 7.939 7.939 0 0 1 283.994 10.674 Q 286.367 12.871 286.484 16.445 L 282.012 16.445 A 4.905 4.905 0 0 0 281.718 14.932 A 4.12 4.12 0 0 0 280.771 13.457 Q 279.609 12.285 277.813 12.285 A 5.069 5.069 0 0 0 276.262 12.51 A 3.965 3.965 0 0 0 274.258 13.955 A 5.353 5.353 0 0 0 273.493 15.451 Q 273.016 16.854 272.99 18.891 A 18.34 18.34 0 0 0 272.988 19.023 L 272.988 19.785 A 15.313 15.313 0 0 0 273.086 21.58 Q 273.323 23.576 274.128 24.769 A 4.408 4.408 0 0 0 274.229 24.912 Q 275.469 26.602 277.813 26.602 A 5.014 5.014 0 0 0 279.228 26.41 A 3.978 3.978 0 0 0 280.762 25.566 A 3.69 3.69 0 0 0 281.707 24.308 A 3.6 3.6 0 0 0 282.012 23.008 Z M 158.379 30 L 153.535 30 A 3.239 3.239 0 0 1 153.366 29.599 Q 153.157 29.01 152.988 28.027 A 7.369 7.369 0 0 1 147.645 30.388 A 8.982 8.982 0 0 1 147.441 30.391 A 9.111 9.111 0 0 1 145.091 30.102 A 6.782 6.782 0 0 1 142.246 28.574 A 6.038 6.038 0 0 1 140.68 26.411 A 5.991 5.991 0 0 1 140.234 24.082 A 7.23 7.23 0 0 1 140.573 21.813 A 5.738 5.738 0 0 1 142.744 18.896 Q 145.254 17.09 149.922 17.09 L 152.832 17.09 L 152.832 15.703 A 4.756 4.756 0 0 0 152.706 14.576 A 3.307 3.307 0 0 0 151.914 13.076 Q 151.133 12.237 149.658 12.112 A 6.363 6.363 0 0 0 149.121 12.09 A 5.308 5.308 0 0 0 147.949 12.212 A 3.693 3.693 0 0 0 146.465 12.9 A 2.821 2.821 0 0 0 145.785 13.647 A 2.469 2.469 0 0 0 145.43 14.961 L 140.684 14.961 A 5.151 5.151 0 0 1 141.558 12.103 A 6.532 6.532 0 0 1 141.836 11.709 Q 142.988 10.195 144.971 9.336 A 10.442 10.442 0 0 1 148.058 8.545 A 12.857 12.857 0 0 1 149.395 8.477 A 11.969 11.969 0 0 1 151.855 8.715 Q 153.385 9.036 154.565 9.791 A 6.994 6.994 0 0 1 155.313 10.342 Q 157.52 12.207 157.578 15.586 L 157.578 25.117 A 16.584 16.584 0 0 0 157.664 26.864 Q 157.757 27.734 157.948 28.462 A 7.016 7.016 0 0 0 158.379 29.668 L 158.379 30 Z M 223.164 30 L 218.32 30 A 3.239 3.239 0 0 1 218.151 29.599 Q 217.942 29.01 217.773 28.027 A 7.369 7.369 0 0 1 212.431 30.388 A 8.982 8.982 0 0 1 212.227 30.391 A 9.111 9.111 0 0 1 209.876 30.102 A 6.782 6.782 0 0 1 207.031 28.574 A 6.038 6.038 0 0 1 205.465 26.411 A 5.991 5.991 0 0 1 205.02 24.082 A 7.23 7.23 0 0 1 205.358 21.813 A 5.738 5.738 0 0 1 207.529 18.896 Q 210.039 17.09 214.707 17.09 L 217.617 17.09 L 217.617 15.703 A 4.756 4.756 0 0 0 217.491 14.576 A 3.307 3.307 0 0 0 216.699 13.076 Q 215.918 12.237 214.443 12.112 A 6.363 6.363 0 0 0 213.906 12.09 A 5.308 5.308 0 0 0 212.735 12.212 A 3.693 3.693 0 0 0 211.25 12.9 A 2.821 2.821 0 0 0 210.57 13.647 A 2.469 2.469 0 0 0 210.215 14.961 L 205.469 14.961 A 5.151 5.151 0 0 1 206.343 12.103 A 6.532 6.532 0 0 1 206.621 11.709 Q 207.773 10.195 209.756 9.336 A 10.442 10.442 0 0 1 212.843 8.545 A 12.857 12.857 0 0 1 214.18 8.477 A 11.969 11.969 0 0 1 216.64 8.715 Q 218.17 9.036 219.35 9.791 A 6.994 6.994 0 0 1 220.098 10.342 Q 222.305 12.207 222.363 15.586 L 222.363 25.117 A 16.584 16.584 0 0 0 222.449 26.864 Q 222.542 27.734 222.733 28.462 A 7.016 7.016 0 0 0 223.164 29.668 L 223.164 30 Z M 75.332 19.98 L 75.332 19.395 A 14.055 14.055 0 0 1 75.677 16.223 A 11.505 11.505 0 0 1 76.553 13.74 A 9.612 9.612 0 0 1 78.638 10.892 A 9.019 9.019 0 0 1 79.98 9.863 A 9.062 9.062 0 0 1 84.902 8.477 A 10.856 10.856 0 0 1 87.638 8.802 A 7.536 7.536 0 0 1 91.572 11.23 Q 93.551 13.546 93.866 17.477 A 19.369 19.369 0 0 1 93.926 19.023 L 93.926 20.938 L 80.117 20.938 A 8.027 8.027 0 0 0 80.475 22.781 A 5.665 5.665 0 0 0 81.865 25.078 A 5.185 5.185 0 0 0 85.417 26.595 A 6.86 6.86 0 0 0 85.723 26.602 A 6.347 6.347 0 0 0 90.555 24.528 A 8.119 8.119 0 0 0 91.035 23.965 L 93.594 26.406 A 8.544 8.544 0 0 1 90.205 29.346 A 10.183 10.183 0 0 1 86.657 30.333 A 12.457 12.457 0 0 1 85.449 30.391 Q 80.938 30.391 78.135 27.549 A 9.539 9.539 0 0 1 75.542 22.424 A 13.642 13.642 0 0 1 75.332 19.98 Z M 238.418 8.75 L 238.398 13.203 A 11.745 11.745 0 0 0 236.465 13.047 A 6.529 6.529 0 0 0 234.801 13.244 A 3.969 3.969 0 0 0 232.07 15.547 L 232.07 30 L 227.324 30 L 227.324 8.867 L 231.855 8.867 L 231.973 11.23 A 6.417 6.417 0 0 1 233.362 9.621 Q 234.772 8.479 236.731 8.477 A 6.682 6.682 0 0 1 236.738 8.477 Q 237.51 8.477 238.079 8.635 A 2.992 2.992 0 0 1 238.418 8.75 Z M 289.18 19.473 L 289.18 19.238 Q 289.18 16.133 290.41 13.643 A 9.384 9.384 0 0 1 292.366 10.952 A 8.68 8.68 0 0 1 293.867 9.814 Q 296.094 8.477 298.984 8.477 A 10.832 10.832 0 0 1 302.194 8.931 A 8.69 8.69 0 0 1 305.928 11.23 A 9.967 9.967 0 0 1 308.465 15.991 A 14.021 14.021 0 0 1 308.809 18.535 L 308.828 19.648 Q 308.828 22.773 307.627 25.234 Q 306.426 27.695 304.189 29.043 A 9.407 9.407 0 0 1 300.294 30.324 A 11.813 11.813 0 0 1 299.023 30.391 Q 294.551 30.391 291.865 27.412 A 10.123 10.123 0 0 1 289.527 22.786 A 14.926 14.926 0 0 1 289.18 19.473 Z M 29.551 8.867 L 29.551 30 L 24.805 30 L 24.805 8.867 L 29.551 8.867 Z M 293.926 19.648 A 12.754 12.754 0 0 0 294.071 21.636 Q 294.237 22.69 294.595 23.542 A 5.954 5.954 0 0 0 295.273 24.756 A 4.29 4.29 0 0 0 298.369 26.565 A 5.722 5.722 0 0 0 299.023 26.602 A 4.923 4.923 0 0 0 300.738 26.315 Q 301.939 25.873 302.751 24.744 A 5.43 5.43 0 0 0 302.764 24.727 A 6.205 6.205 0 0 0 303.605 22.996 Q 304.102 21.44 304.102 19.238 A 12.073 12.073 0 0 0 303.941 17.204 Q 303.631 15.394 302.725 14.16 A 4.558 4.558 0 0 0 301.174 12.791 Q 300.287 12.325 299.175 12.288 A 5.81 5.81 0 0 0 298.984 12.285 A 4.697 4.697 0 0 0 297.134 12.638 Q 296.112 13.071 295.366 14.035 A 5.562 5.562 0 0 0 295.293 14.131 A 5.959 5.959 0 0 0 294.44 15.832 Q 294.171 16.651 294.043 17.658 A 15.803 15.803 0 0 0 293.926 19.648 Z M 4.941 5.547 L 4.941 15.078 L 10.02 15.078 Q 11.947 15.078 13.225 14.329 A 4.33 4.33 0 0 0 13.926 13.818 A 4.141 4.141 0 0 0 15.265 11.284 A 5.956 5.956 0 0 0 15.332 10.371 A 6.44 6.44 0 0 0 15.182 8.937 Q 14.956 7.945 14.387 7.226 A 3.874 3.874 0 0 0 14.033 6.836 A 4.177 4.177 0 0 0 12.482 5.912 Q 11.847 5.691 11.071 5.603 A 9.431 9.431 0 0 0 10.156 5.547 L 4.941 5.547 Z M 80.195 17.461 L 89.238 17.461 L 89.238 17.109 A 8.919 8.919 0 0 0 89.047 15.734 Q 88.881 14.999 88.589 14.418 A 4.036 4.036 0 0 0 87.969 13.506 Q 86.855 12.285 84.883 12.285 A 4.526 4.526 0 0 0 83.369 12.528 A 3.873 3.873 0 0 0 81.729 13.652 Q 80.527 15.02 80.195 17.461 Z M 152.832 24.063 L 152.832 20.078 L 150.273 20.078 Q 147.637 20.078 146.309 20.996 A 2.914 2.914 0 0 0 145.013 23.087 A 3.84 3.84 0 0 0 144.98 23.594 Q 144.98 24.961 145.889 25.771 A 3.084 3.084 0 0 0 147.254 26.466 Q 147.743 26.582 148.32 26.582 A 5.399 5.399 0 0 0 150.967 25.898 A 4.833 4.833 0 0 0 152.223 24.921 A 4.362 4.362 0 0 0 152.832 24.062 Z M 217.617 24.063 L 217.617 20.078 L 215.059 20.078 Q 212.422 20.078 211.094 20.996 A 2.914 2.914 0 0 0 209.798 23.087 A 3.84 3.84 0 0 0 209.766 23.594 Q 209.766 24.961 210.674 25.771 A 3.084 3.084 0 0 0 212.039 26.466 Q 212.528 26.582 213.105 26.582 A 5.399 5.399 0 0 0 215.752 25.898 A 4.833 4.833 0 0 0 217.008 24.921 A 4.362 4.362 0 0 0 217.617 24.062 Z M 261.742 25.085 A 3.76 3.76 0 0 0 260.918 25 A 4.484 4.484 0 0 0 260.859 25 Q 259.593 25.017 258.887 25.752 Q 258.164 26.504 258.164 27.637 A 3.264 3.264 0 0 0 258.173 27.88 A 2.423 2.423 0 0 0 258.906 29.492 A 2.462 2.462 0 0 0 260.074 30.122 A 3.608 3.608 0 0 0 260.918 30.215 Q 262.246 30.215 262.969 29.482 A 2.426 2.426 0 0 0 263.543 28.567 A 2.814 2.814 0 0 0 263.691 27.637 A 3.391 3.391 0 0 0 263.685 27.428 A 2.566 2.566 0 0 0 262.969 25.752 A 2.229 2.229 0 0 0 262.71 25.521 Q 262.301 25.21 261.742 25.085 Z M 24.653 2.468 A 2.832 2.832 0 0 0 24.512 3.379 Q 24.512 4.453 25.205 5.166 A 2.112 2.112 0 0 0 25.54 5.446 Q 25.912 5.697 26.406 5.802 A 3.739 3.739 0 0 0 27.188 5.879 A 4.497 4.497 0 0 0 27.322 5.877 Q 27.757 5.864 28.122 5.766 A 2.288 2.288 0 0 0 29.18 5.166 A 2.367 2.367 0 0 0 29.731 4.3 A 2.695 2.695 0 0 0 29.883 3.379 Q 29.883 2.285 29.18 1.563 A 2.163 2.163 0 0 0 28.913 1.33 Q 28.52 1.04 27.987 0.921 A 3.687 3.687 0 0 0 27.188 0.84 A 4.446 4.446 0 0 0 27.063 0.842 Q 25.864 0.875 25.205 1.563 A 2.406 2.406 0 0 0 24.653 2.468 Z" vector-effect="non-scaling-stroke"/></g></svg>